<?xml version="1.0" encoding="iso-8859-1"?>
<!-- Generator: Adobe Illustrator 19.0.0, SVG Export Plug-In . SVG Version: 6.00 Build 0)  -->
<svg version="1.1" id="Layer_1" xmlns="http://www.w3.org/2000/svg" xmlns:xlink="http://www.w3.org/1999/xlink" x="0px" y="0px"
	 viewBox="0 0 511.988 511.988" style="enable-background:new 0 0 511.988 511.988;" xml:space="preserve">
<g>
	<g>
		<g>
			<path fill="#265199" d="M503.292,218.849c-5.804-1.093-11.362,2.726-12.451,8.515l-6.362,33.965h-25.834v-10.666
				c0-19.26-10.244-36.157-25.588-45.54l-42-37.117c-1.951-1.721-4.471-2.672-7.059-2.672h-85.334V80.001
				c0-5.892-4.774-10.666-10.667-10.666h-64c-5.892,0-10.672,4.774-10.672,10.666v85.334h-85.328c-2.608,0-5.108,0.951-7.059,2.672
				l-42,37.122c-15.343,9.378-25.607,26.285-25.607,45.535v10.666H27.516l-6.363-33.965c-1.093-5.789-6.652-9.607-12.451-8.515
				c-5.794,1.083-9.607,6.657-8.515,12.446l32,170.672c0.951,5.117,5.437,8.686,10.466,8.686c0.657,0,1.313-0.049,1.971-0.176
				c5.799-1.078,9.608-6.666,8.529-12.451l-1.637-8.686h12.48v21.312c0,17.658,14.363,32,32,32c17.642,0,32-14.342,32-32h28.284
				c10.701,8.117,46.73,32,99.716,32c52.971,0,89.011-23.883,99.716-32h28.285c0,17.658,14.353,32,32,32c17.637,0,32-14.342,32-32
				v-21.312h12.48l-1.638,8.686c-1.078,5.785,2.726,11.373,8.51,12.451c0.677,0.127,1.333,0.176,1.99,0.176
				c5.029,0,9.51-3.568,10.461-8.686l32-170.672C512.9,225.506,509.066,219.933,503.292,218.849z M47.516,367.997l-16-85.344H53.33
				v74.688c0,3.637,0.372,7.215,1.073,10.656H47.516z M234.669,90.663h42.651v74.672h-42.651V90.663z M132.031,186.663h91.966h64
				h91.952l12.078,10.672h-272.06L132.031,186.663z M95.997,421.341c-5.873,0-10.672-4.795-10.672-10.688v-4.471
				c6.549,2.873,13.75,4.471,21.343,4.471C106.668,416.546,101.874,421.341,95.997,421.341z M255.997,421.341
				c-22.172,0-41.063-4.893-55.657-10.688h111.501C297.262,416.448,278.34,421.341,255.997,421.341z M426.644,410.653
				c0,5.893-4.774,10.688-10.646,10.688c-5.893,0-10.677-4.795-10.677-10.688c7.578,0,14.794-1.598,21.323-4.471V410.653z
				 M437.321,357.341c0,17.627-14.362,32-32,32H106.668c-17.651,0-31.995-14.373-31.995-32V250.663c0-17.642,14.344-32,31.995-32
				h298.653c17.638,0,32,14.358,32,32V357.341z M464.479,367.997h-6.893c0.706-3.441,1.059-7.02,1.059-10.656v-74.688h21.834
				L464.479,367.997z"/>
			<path d="M248.448,136.457c-4.157,4.167-4.157,10.917,0,15.089c4.171,4.162,10.921,4.162,15.093,0
				c4.162-4.172,4.162-10.922,0-15.089C259.369,132.295,252.62,132.295,248.448,136.457z"/>
			<path d="M248.448,104.461c-4.157,4.162-4.157,10.912,0,15.084c4.171,4.166,10.921,4.166,15.093,0
				c4.162-4.172,4.162-10.922,0-15.084C259.369,100.295,252.62,100.295,248.448,104.461z"/>
			<path d="M298.399,229.335h-85.324c-5.892,0-10.671,4.77-10.671,10.662c0,5.892,4.78,10.667,10.671,10.667h85.324
				c5.892,0,10.677-4.774,10.677-10.667S304.291,229.335,298.399,229.335z"/>
		</g>
	</g>
</g>
<g>
</g>
<g>
</g>
<g>
</g>
<g>
</g>
<g>
</g>
<g>
</g>
<g>
</g>
<g>
</g>
<g>
</g>
<g>
</g>
<g>
</g>
<g>
</g>
<g>
</g>
<g>
</g>
<g>
</g>
</svg>
