<?xml version="1.0" encoding="iso-8859-1"?>
<!-- Generator: Adobe Illustrator 18.0.0, SVG Export Plug-In . SVG Version: 6.00 Build 0)  -->
<!DOCTYPE svg PUBLIC "-//W3C//DTD SVG 1.1//EN" "http://www.w3.org/Graphics/SVG/1.1/DTD/svg11.dtd">
<svg version="1.1" id="Capa_1" xmlns="http://www.w3.org/2000/svg" xmlns:xlink="http://www.w3.org/1999/xlink" x="0px" y="0px"
	 viewBox="0 0 368.147 368.147" style="enable-background:new 0 0 368.147 368.147;" xml:space="preserve">
<path d="M368.147,175.513h-35.965c-5.503-72.952-63.915-131.362-136.855-136.852V0.001h-22.522v38.66
	c-72.942,5.489-131.355,63.899-136.84,136.852H0v22.512h35.965c5.484,72.951,63.897,131.361,136.84,136.862v33.259h22.522v-33.259
	c72.94-5.501,131.352-63.911,136.855-136.862h35.965V175.513z M298.272,175.513H195.327V72.56
	C249.64,77.872,292.956,121.204,298.272,175.513z M172.805,72.56v102.953H69.854C75.182,121.204,118.508,77.872,172.805,72.56z
	 M69.854,198.025h102.951v102.954C118.508,295.664,75.182,252.344,69.854,198.025z M195.327,300.979V198.025h102.944
	C292.956,252.344,249.64,295.664,195.327,300.979z"/>
<g>
</g>
<g>
</g>
<g>
</g>
<g>
</g>
<g>
</g>
<g>
</g>
<g>
</g>
<g>
</g>
<g>
</g>
<g>
</g>
<g>
</g>
<g>
</g>
<g>
</g>
<g>
</g>
<g>
</g>
</svg>
